<svg width="34" height="34" viewBox="0 0 34 34" fill="none" xmlns="http://www.w3.org/2000/svg">
<path fill-rule="evenodd" clip-rule="evenodd" d="M33.2158 16.9374C33.2157 17.4885 33.0246 18.017 32.6846 18.4066L19.9943 32.9535C19.6523 33.332 19.1944 33.5415 18.719 33.5367C18.2437 33.532 17.789 33.3134 17.4529 32.9281C17.1168 32.5428 16.9261 32.0216 16.922 31.4767C16.9178 30.9319 17.1006 30.4069 17.4308 30.015L27.0265 19.0155L2.39632 19.0155C1.91551 19.0155 1.45438 18.7965 1.1144 18.4068C0.774409 18.0171 0.583408 17.4885 0.583408 16.9374C0.583408 16.3862 0.774409 15.8576 1.1144 15.4679C1.45438 15.0782 1.91551 14.8592 2.39632 14.8592L27.0265 14.8592L17.4308 3.85971C17.1006 3.46777 16.9178 2.94283 16.922 2.39796C16.9261 1.85308 17.1168 1.33186 17.4529 0.946559C17.789 0.561258 18.2437 0.342703 18.7191 0.337968C19.1944 0.333234 19.6523 0.542698 19.9943 0.921245L32.6846 15.4681C33.0246 15.8578 33.2157 16.3862 33.2158 16.9374Z" fill="#36DB75"/>
</svg>
