<svg width="70" height="69" viewBox="0 0 70 69" fill="none" xmlns="http://www.w3.org/2000/svg">
<path fill-rule="evenodd" clip-rule="evenodd" d="M0.898438 14.25C0.898438 10.6696 2.34815 7.2358 4.92864 4.70406C7.50914 2.17232 11.009 0.75 14.6584 0.75H55.9383C59.5877 0.75 63.0876 2.17232 65.6681 4.70406C68.2486 7.2358 69.6983 10.6696 69.6983 14.25V54.75C69.6983 58.3304 68.2486 61.7642 65.6681 64.2959C63.0876 66.8277 59.5877 68.25 55.9383 68.25H14.6584C11.009 68.25 7.50914 66.8277 4.92864 64.2959C2.34815 61.7642 0.898438 58.3304 0.898438 54.75V14.25ZM14.6584 7.5C12.8337 7.5 11.0838 8.21116 9.79353 9.47703C8.50328 10.7429 7.77843 12.4598 7.77843 14.25V54.75C7.77843 56.5402 8.50328 58.2571 9.79353 59.523C11.0838 60.7888 12.8337 61.5 14.6584 61.5H35.2984V37.875H31.8584C30.946 37.875 30.0711 37.5194 29.4259 36.8865C28.7808 36.2535 28.4184 35.3951 28.4184 34.5C28.4184 33.6049 28.7808 32.7465 29.4259 32.1135C30.0711 31.4806 30.946 31.125 31.8584 31.125H35.2984V26.0625C35.2984 22.9296 36.5669 19.9251 38.8248 17.7098C41.0827 15.4945 44.1452 14.25 47.3384 14.25H49.4024C50.3147 14.25 51.1897 14.6056 51.8348 15.2385C52.4799 15.8715 52.8424 16.7299 52.8424 17.625C52.8424 18.5201 52.4799 19.3785 51.8348 20.0115C51.1897 20.6444 50.3147 21 49.4024 21H47.3384C46.6607 21 45.9898 21.1309 45.3637 21.3854C44.7377 21.6398 44.1688 22.0127 43.6897 22.4828C43.2105 22.9529 42.8305 23.511 42.5712 24.1252C42.3118 24.7394 42.1784 25.3977 42.1784 26.0625V31.125H49.4024C50.3147 31.125 51.1897 31.4806 51.8348 32.1135C52.4799 32.7465 52.8424 33.6049 52.8424 34.5C52.8424 35.3951 52.4799 36.2535 51.8348 36.8865C51.1897 37.5194 50.3147 37.875 49.4024 37.875H42.1784V61.5H55.9383C57.763 61.5 59.513 60.7888 60.8032 59.523C62.0935 58.2571 62.8183 56.5402 62.8183 54.75V14.25C62.8183 12.4598 62.0935 10.7429 60.8032 9.47703C59.513 8.21116 57.763 7.5 55.9383 7.5H14.6584Z" fill="#36DB75"/>
</svg>
