<svg width="72" height="69" viewBox="0 0 72 69" fill="none" xmlns="http://www.w3.org/2000/svg">
<path fill-rule="evenodd" clip-rule="evenodd" d="M0.604004 14.25C0.604004 10.6696 2.10675 7.2358 4.78166 4.70406C7.45656 2.17232 11.0845 0.75 14.8674 0.75H57.6576C61.4405 0.75 65.0684 2.17232 67.7433 4.70406C70.4182 7.2358 71.921 10.6696 71.921 14.25V54.75C71.921 58.3304 70.4182 61.7642 67.7433 64.2959C65.0684 66.8277 61.4405 68.25 57.6576 68.25H14.8674C11.0845 68.25 7.45656 66.8277 4.78166 64.2959C2.10675 61.7642 0.604004 58.3304 0.604004 54.75V14.25ZM14.8674 7.5C12.976 7.5 11.162 8.21116 9.82453 9.47703C8.48707 10.7429 7.7357 12.4598 7.7357 14.25V54.75C7.7357 56.5402 8.48707 58.2571 9.82453 59.523C11.162 60.7888 12.976 61.5 14.8674 61.5H57.6576C59.549 61.5 61.363 60.7888 62.7005 59.523C64.0379 58.2571 64.7893 56.5402 64.7893 54.75V14.25C64.7893 12.4598 64.0379 10.7429 62.7005 9.47703C61.363 8.21116 59.549 7.5 57.6576 7.5H14.8674ZM36.2625 24.375C33.4253 24.375 30.7044 25.4417 28.6982 27.3405C26.692 29.2393 25.5649 31.8147 25.5649 34.5C25.5649 37.1853 26.692 39.7607 28.6982 41.6595C30.7044 43.5583 33.4253 44.625 36.2625 44.625C39.0997 44.625 41.8206 43.5583 43.8268 41.6595C45.833 39.7607 46.96 37.1853 46.96 34.5C46.96 31.8147 45.833 29.2393 43.8268 27.3405C41.8206 25.4417 39.0997 24.375 36.2625 24.375ZM18.4332 34.5C18.4332 30.0245 20.3117 25.7322 23.6553 22.5676C26.9989 19.4029 31.5339 17.625 36.2625 17.625C40.9911 17.625 45.526 19.4029 48.8697 22.5676C52.2133 25.7322 54.0917 30.0245 54.0917 34.5C54.0917 38.9755 52.2133 43.2678 48.8697 46.4324C45.526 49.5971 40.9911 51.375 36.2625 51.375C31.5339 51.375 26.9989 49.5971 23.6553 46.4324C20.3117 43.2678 18.4332 38.9755 18.4332 34.5V34.5ZM55.8747 21C57.2932 21 58.6537 20.4666 59.6568 19.5172C60.6599 18.5678 61.2234 17.2802 61.2234 15.9375C61.2234 14.5948 60.6599 13.3072 59.6568 12.3578C58.6537 11.4084 57.2932 10.875 55.8747 10.875C54.4561 10.875 53.0956 11.4084 52.0925 12.3578C51.0894 13.3072 50.5259 14.5948 50.5259 15.9375C50.5259 17.2802 51.0894 18.5678 52.0925 19.5172C53.0956 20.4666 54.4561 21 55.8747 21Z" fill="#36DB75"/>
</svg>
